<svg width="110" height="110" viewBox="0 0 110 110" fill="none" xmlns="http://www.w3.org/2000/svg">
<path d="M61.1232 6.29203L61.3814 6.52875L61.692 6.36693L69.0595 2.52929L73.5211 9.53651L73.7092 9.83199L74.0512 9.75608L82.1608 7.95605L84.6568 15.8792L84.762 16.2134L85.112 16.2285L93.4112 16.5888L93.7715 24.888L93.7867 25.238L94.1208 25.3432L102.044 27.8392L100.244 35.9488L100.168 36.2908L100.464 36.4789L107.471 40.9405L103.633 48.308L103.471 48.6186L103.708 48.8768L109.322 55L103.708 61.1232L103.471 61.3814L103.633 61.692L107.471 69.0595L100.464 73.5211L100.168 73.7092L100.244 74.0512L102.044 82.1608L94.1208 84.6568L93.7867 84.762L93.7715 85.112L93.4112 93.4112L85.112 93.7715L84.762 93.7867L84.6568 94.1208L82.1608 102.044L74.0512 100.244L73.7092 100.168L73.5211 100.464L69.0595 107.471L61.692 103.633L61.3814 103.471L61.1232 103.708L55 109.322L48.8768 103.708L48.6186 103.471L48.308 103.633L40.9405 107.471L36.4789 100.464L36.2908 100.168L35.9488 100.244L27.8392 102.044L25.3432 94.1208L25.238 93.7867L24.888 93.7715L16.5888 93.4112L16.2285 85.112L16.2134 84.762L15.8792 84.6568L7.95605 82.1608L9.75608 74.0512L9.83199 73.7092L9.53651 73.5211L2.52929 69.0595L6.36693 61.692L6.52875 61.3814L6.29203 61.1232L0.678331 55L6.29203 48.8768L6.52875 48.6186L6.36693 48.308L2.5293 40.9405L9.53651 36.4789L9.83199 36.2908L9.75608 35.9488L7.95605 27.8392L15.8792 25.3432L16.2134 25.238L16.2285 24.888L16.5888 16.5888L24.888 16.2285L25.238 16.2134L25.3432 15.8792L27.8392 7.95605L35.9488 9.75608L36.2908 9.83199L36.4789 9.53651L40.9405 2.5293L48.308 6.36693L48.6186 6.52875L48.8768 6.29203L55 0.678331L61.1232 6.29203Z" stroke="#F3F2EA"/>
</svg>
